<?xml version="1.0" standalone="no"?>
<!DOCTYPE svg PUBLIC "-//W3C//DTD SVG 20010904//EN"
 "http://www.w3.org/TR/2001/REC-SVG-20010904/DTD/svg10.dtd">
<svg version="1.0" xmlns="http://www.w3.org/2000/svg"
 width="1196.000000pt" height="1280.000000pt" viewBox="0 0 1196.000000 1280.000000"
 preserveAspectRatio="xMidYMid meet">
<g transform="translate(0.000000,1280.000000) scale(0.100000,-0.100000)"
fill="#028302" stroke="none">
<path d="M2834 12713 c15 -212 40 -332 97 -461 l24 -54 -39 -31 c-21 -17 -48
-47 -61 -67 -20 -31 -31 -38 -81 -49 -93 -21 -183 -61 -249 -111 -50 -38 -73
-48 -116 -53 -30 -4 -67 -10 -84 -14 -29 -6 -29 -5 17 41 71 70 85 151 50 286
l-17 65 -35 -3 c-36 -4 -124 -44 -135 -62 -12 -20 -42 -9 -103 36 -56 41 -72
48 -155 62 -51 9 -100 13 -109 9 -9 -3 -29 -27 -45 -54 -25 -43 -27 -55 -25
-126 2 -43 7 -90 13 -104 12 -33 2 -45 -80 -88 -76 -40 -227 -175 -273 -244
-48 -72 -99 -121 -126 -121 -38 0 -63 -19 -83 -65 -13 -30 -32 -51 -62 -68
-23 -14 -69 -49 -102 -77 -33 -28 -79 -63 -102 -77 -24 -14 -43 -27 -43 -30 0
-10 86 45 143 92 79 65 138 105 147 100 4 -2 10 -27 13 -54 7 -62 37 -121 77
-155 88 -73 144 22 84 142 -30 60 -69 92 -113 92 -37 0 -40 16 -10 54 20 25
59 36 59 16 0 -5 25 -17 55 -25 32 -10 75 -33 102 -55 27 -22 84 -69 128 -106
147 -122 262 -159 366 -117 l42 16 24 -29 c13 -16 40 -46 60 -66 l35 -37 -38
-6 c-136 -21 -282 -54 -453 -102 -272 -76 -391 -102 -496 -109 -225 -15 -482
57 -688 193 -40 26 -124 97 -187 158 -92 89 -103 97 -57 44 143 -166 350 -300
557 -362 124 -37 190 -47 321 -47 139 0 233 17 514 95 278 77 417 104 570 111
l130 7 17 -31 c17 -29 17 -30 -12 -66 -27 -36 -80 -172 -80 -209 0 -10 -18
-41 -41 -69 -49 -63 -97 -155 -115 -223 -31 -116 -6 -237 75 -352 56 -79 98
-118 156 -144 29 -13 51 -35 82 -82 44 -66 127 -139 180 -158 29 -10 31 -12
22 -42 -13 -47 -11 -143 5 -181 17 -41 65 -76 104 -76 18 0 49 14 78 35 143
103 162 110 207 75 48 -38 44 -80 -11 -128 -19 -17 -21 -21 -7 -14 31 16 54
45 61 80 5 26 1 36 -24 62 -48 47 -83 42 -181 -29 -92 -66 -121 -77 -158 -59
-49 24 -68 63 -68 136 0 37 4 79 8 93 6 25 11 27 84 31 196 12 286 165 109
185 -34 4 -54 0 -85 -18 -39 -21 -101 -100 -101 -127 0 -48 -158 70 -213 159
l-16 26 72 5 c214 14 323 176 238 352 -33 68 -102 94 -175 66 -34 -13 -104
-77 -133 -123 -33 -52 -57 -151 -49 -205 l6 -44 -43 25 c-51 29 -128 122 -165
197 -24 48 -27 67 -27 151 0 95 1 99 45 185 l45 89 130 8 c93 6 142 14 173 27
56 25 76 25 93 0 13 -18 173 -120 190 -120 16 0 31 77 33 166 l1 93 30 7 c16
4 42 19 58 35 l28 28 -22 31 c-41 54 -139 103 -209 103 -17 0 -30 2 -30 4 0 2
19 13 43 24 23 12 53 27 67 34 14 7 52 16 86 20 l61 7 12 -61 c7 -33 16 -63
21 -66 20 -12 155 76 189 123 l19 27 24 -22 c14 -13 39 -22 68 -25 l45 -3 6
53 c4 29 9 55 12 58 2 3 67 24 143 48 77 24 202 67 279 95 244 92 315 113 349
104 17 -4 56 -7 86 -8 l54 0 9 -37 c7 -30 5 -44 -11 -70 -11 -18 -23 -44 -27
-58 -4 -14 -31 -46 -61 -73 -121 -109 -98 -228 96 -500 93 -129 126 -190 114
-208 -3 -6 -16 -15 -28 -20 -20 -8 -20 -9 3 -6 66 6 48 63 -79 243 -134 189
-174 289 -156 389 7 34 65 105 86 105 6 0 10 -23 10 -50 0 -83 44 -160 112
-196 65 -34 215 -8 274 47 13 13 47 24 90 31 38 5 81 16 96 24 39 20 61 17 88
-11 28 -29 147 -102 175 -107 17 -3 22 6 33 57 7 33 11 90 8 127 -5 68 0 78
41 78 8 0 28 14 45 30 l30 30 -27 35 c-14 19 -39 42 -56 50 -42 22 -36 25 24
11 28 -7 97 -23 152 -36 55 -13 103 -27 108 -30 4 -4 -30 -37 -75 -75 -46 -38
-92 -81 -103 -95 -11 -14 -45 -52 -77 -84 -32 -33 -57 -64 -55 -69 4 -14 168
-81 277 -113 62 -18 129 -30 195 -33 55 -3 106 -10 113 -14 6 -5 12 -21 12
-36 0 -47 169 -291 202 -291 36 0 205 213 226 284 l14 48 47 -7 c25 -4 57 -8
71 -8 26 1 129 29 138 38 8 8 -18 104 -38 145 -23 44 -145 154 -200 179 l-41
18 118 6 c98 5 266 31 334 52 14 5 17 -9 24 -97 8 -118 25 -172 52 -164 10 2
34 8 53 11 72 15 235 86 263 116 15 16 34 29 41 29 8 0 31 -16 52 -35 21 -20
50 -38 64 -41 80 -18 80 -17 65 -95 l-7 -37 53 -4 c78 -6 197 9 253 33 l48 21
37 -34 c65 -62 191 -129 191 -102 0 14 209 7 226 -7 9 -7 27 -36 41 -63 14
-28 40 -64 58 -81 24 -22 35 -42 39 -72 8 -53 -12 -77 -58 -69 -17 3 -105 13
-196 22 -194 19 -420 14 -515 -11 -169 -46 -275 -148 -301 -290 -4 -22 -15
-51 -24 -65 -10 -14 -23 -44 -29 -67 -24 -89 21 -191 168 -377 56 -70 101
-132 101 -138 0 -10 -64 -7 -120 6 -14 4 -9 0 10 -8 48 -20 109 -20 116 -1 4
10 -30 64 -94 148 -121 159 -163 242 -163 322 0 37 6 66 17 83 16 25 18 25 28
7 27 -46 80 -94 126 -114 65 -28 163 -37 228 -21 161 38 231 204 112 265 -82
42 -264 38 -366 -9 -31 -15 -58 -25 -60 -23 -10 10 50 108 86 141 81 73 203
106 393 106 98 0 375 -24 384 -34 2 -2 -14 -14 -34 -28 -68 -45 -211 -172
-251 -223 -21 -27 -52 -62 -68 -76 -42 -38 -66 -69 -62 -81 6 -16 151 -70 363
-134 69 -21 113 -28 190 -29 114 -2 133 -8 140 -41 3 -13 7 -35 10 -49 7 -35
147 -236 191 -274 l36 -32 46 43 c75 68 200 238 211 288 5 23 14 47 19 52 15
15 53 -78 55 -132 2 -41 -1 -46 -30 -61 -49 -25 -58 -34 -150 -157 -77 -104
-123 -184 -123 -216 0 -15 151 -91 215 -107 28 -7 70 -21 95 -32 33 -14 66
-19 123 -18 74 1 78 0 87 -25 6 -14 10 -43 10 -65 0 -45 17 -84 50 -114 12
-11 31 -37 41 -57 22 -44 27 -45 77 -19 82 42 169 140 191 213 5 18 18 56 29
83 12 28 25 66 29 85 l9 35 28 -43 c51 -80 86 -186 95 -284 11 -120 7 -128
-67 -128 -42 0 -66 -6 -91 -23 -19 -12 -51 -32 -70 -44 -45 -27 -45 -55 0
-125 36 -55 120 -128 149 -128 10 0 28 -8 40 -18 l21 -17 -22 -128 c-12 -70
-26 -127 -30 -127 -4 0 -27 23 -51 52 -47 56 -199 161 -295 204 -32 14 -67 33
-78 43 -46 43 -108 65 -181 66 -53 1 -79 7 -105 22 -19 12 -55 27 -81 33 -124
31 -294 -76 -362 -228 -43 -95 -51 -107 -70 -110 -36 -7 -66 9 -86 46 -14 25
-19 29 -14 12 9 -37 48 -72 79 -72 35 0 67 32 88 89 37 104 147 210 245 239
65 19 122 13 175 -19 l37 -23 -52 -34 c-113 -75 -144 -194 -83 -315 33 -65 63
-92 116 -104 53 -11 100 3 136 43 l32 35 6 -47 c3 -26 13 -67 22 -92 9 -25 18
-63 20 -85 4 -38 2 -42 -30 -57 -52 -25 -207 -232 -207 -277 0 -30 234 -123
320 -127 51 -2 55 -4 53 -26 -1 -12 -12 -94 -23 -181 -11 -87 -20 -162 -20
-166 0 -4 -10 -13 -23 -18 -13 -6 -44 -29 -70 -51 -60 -52 -83 -59 -110 -34
-12 11 -33 25 -46 32 -41 21 -224 70 -262 70 -36 0 -37 -1 -43 -44 -10 -62
-30 -51 -71 39 -18 40 -38 76 -44 79 -6 4 -20 25 -31 47 -19 37 -19 41 -4 64
19 29 37 31 88 10 29 -12 48 -13 98 -5 34 5 66 14 71 19 22 22 19 86 -7 144
l-26 58 43 47 c51 56 99 132 117 187 7 22 21 55 31 74 10 19 15 39 12 44 -9
16 -264 1 -308 -18 -53 -22 -73 -19 -100 14 -26 31 -144 111 -163 111 -24 0
-77 -142 -84 -225 -3 -26 -8 -31 -39 -36 -21 -3 -51 -17 -68 -32 l-31 -26 -53
24 c-120 54 -232 53 -344 -3 -127 -65 -220 -151 -262 -244 -9 -20 -39 -54 -67
-76 -59 -47 -83 -74 -116 -126 -24 -39 -25 -39 -93 -43 -142 -7 -215 -54 -215
-137 0 -33 8 -53 33 -85 68 -90 77 -105 77 -131 0 -35 -23 -54 -64 -53 -52 1
-95 29 -181 117 -43 44 -65 62 -47 40 54 -70 150 -153 192 -165 31 -9 46 -9
70 1 65 27 63 73 -7 164 -25 32 -49 72 -54 88 -22 79 58 137 192 138 l66 0
-10 -45 c-25 -111 54 -255 141 -255 49 0 84 89 68 173 -8 42 -64 109 -111 131
-19 9 -35 21 -35 26 0 6 29 40 64 77 l64 68 7 -40 c19 -118 94 -216 190 -248
89 -31 226 -16 277 30 29 26 24 92 -10 139 -72 98 -208 184 -308 192 -30 2
-54 9 -54 14 0 23 116 128 187 168 76 44 79 45 169 45 87 0 94 -2 180 -44 68
-34 104 -59 154 -111 70 -72 142 -181 124 -187 -6 -2 -32 -17 -57 -32 -36 -24
-48 -39 -61 -79 -10 -28 -24 -56 -32 -62 -7 -7 -14 -23 -14 -35 0 -38 -23 -47
-137 -50 -119 -2 -254 -33 -356 -79 -32 -14 -64 -26 -72 -26 -20 0 -84 -33
-85 -43 0 -15 116 -137 213 -226 57 -51 115 -94 152 -111 72 -33 108 -68 95
-90 -14 -22 -12 -112 5 -210 16 -100 33 -150 48 -150 27 0 109 31 184 69 80
40 81 40 87 18 3 -12 6 -47 6 -77 0 -31 9 -96 19 -145 10 -50 22 -111 26 -137
3 -26 24 -83 46 -127 47 -95 49 -122 12 -147 -16 -9 -33 -25 -40 -33 -32 -42
-132 -240 -138 -273 -7 -37 -7 -38 41 -59 27 -11 69 -24 94 -29 25 -5 80 -16
123 -25 62 -12 87 -13 123 -4 54 14 71 3 80 -52 l6 -34 -197 -2 c-109 -1 -201
-5 -206 -10 -5 -5 2 -31 15 -59 46 -100 48 -97 -35 -69 -120 41 -232 58 -344
52 -195 -10 -296 -75 -298 -193 0 -37 -5 -48 -33 -69 -106 -81 -97 -272 22
-450 71 -105 74 -112 68 -129 -10 -27 -81 -20 -142 13 -28 16 -49 25 -46 19 8
-13 124 -68 144 -68 25 0 60 29 60 50 0 10 -16 42 -36 71 -94 139 -139 285
-114 375 8 28 27 61 48 82 l35 35 18 -35 c33 -63 107 -136 174 -169 54 -26 73
-31 115 -27 56 6 83 25 111 80 45 88 13 169 -79 205 -53 20 -182 23 -244 5
-38 -10 -38 -10 -38 20 0 40 44 81 107 99 30 9 91 14 163 13 130 -1 228 -25
371 -91 74 -33 82 -40 106 -87 14 -28 51 -78 83 -111 65 -68 85 -100 70 -110
-31 -19 -80 -214 -80 -317 0 -43 3 -48 25 -54 57 -14 296 19 334 46 43 30 59
25 93 -30 20 -33 40 -53 57 -57 14 -3 42 -17 61 -30 l35 -24 22 27 c12 15 29
45 39 66 9 21 20 38 23 38 3 0 30 -22 59 -48 l53 -47 34 -155 c19 -85 35 -161
35 -167 0 -7 -9 -13 -19 -13 -18 0 -112 -72 -119 -91 -7 -17 91 -108 134 -126
24 -10 46 -23 48 -28 2 -6 12 -78 22 -160 14 -118 15 -150 5 -153 -7 -2 -41
-28 -76 -58 -35 -30 -71 -54 -81 -54 -9 0 -40 13 -68 29 -28 15 -71 33 -96 39
-25 6 -56 14 -70 17 -14 4 -68 11 -120 16 -52 5 -112 11 -133 13 -44 4 -42 17
-13 -109 25 -104 84 -252 121 -300 40 -54 43 -70 14 -101 -23 -25 -83 -179
-94 -240 -8 -53 -3 -55 146 -62 95 -4 121 -1 148 13 42 21 57 15 77 -35 10
-25 28 -47 45 -55 15 -8 31 -19 34 -25 3 -5 -53 -74 -126 -152 -274 -296 -319
-396 -319 -712 0 -115 -3 -155 -12 -158 -44 -11 -210 -114 -233 -143 -14 -19
-33 -35 -43 -35 -9 0 -33 17 -54 37 -31 30 -48 38 -90 43 -29 4 -61 10 -70 14
-14 6 -20 -2 -33 -46 -25 -81 -29 -155 -10 -218 28 -96 36 -132 30 -138 -12
-12 -197 -32 -355 -38 l-165 -6 -29 31 -30 31 38 0 c48 0 84 19 128 68 58 64
63 79 36 102 -13 10 -36 22 -53 26 -39 9 -45 19 -45 79 0 53 -37 131 -80 170
l-22 20 -30 -38 c-16 -20 -36 -37 -44 -37 -24 0 -116 63 -152 104 -51 58 -84
133 -90 203 -2 35 -2 63 1 63 3 0 29 -11 59 -25 60 -28 100 -32 117 -11 27 32
-55 126 -109 126 -19 0 -36 -10 -55 -31 l-26 -32 -37 30 c-20 16 -52 54 -69
83 -60 98 -40 179 65 279 31 29 43 44 26 33 -44 -30 -103 -98 -120 -138 -20
-48 -17 -118 7 -166 20 -40 103 -128 120 -128 5 0 6 -20 3 -44 -9 -66 25 -168
79 -237 39 -48 62 -67 150 -124 14 -9 12 -15 -13 -44 l-29 -34 -43 16 c-68 25
-121 29 -243 22 -130 -8 -128 -6 -96 -90 39 -105 83 -190 117 -227 55 -61 42
-67 -123 -51 -136 13 -371 48 -379 56 -2 2 1 18 7 34 14 40 -14 193 -36 193
-15 0 -85 -34 -85 -41 0 -16 -47 -10 -61 8 -23 27 -91 53 -140 53 -44 0 -48
-2 -64 -37 -15 -30 -16 -45 -8 -75 6 -21 8 -39 6 -41 -4 -5 -123 37 -154 53
-17 10 -16 14 13 75 53 115 39 243 -38 334 -81 96 -270 111 -359 27 -32 -30
-35 -39 -35 -87 0 -39 8 -69 28 -108 32 -65 147 -186 215 -225 26 -15 47 -31
47 -35 0 -16 -133 -94 -201 -117 -189 -64 -474 -71 -739 -18 -177 36 -541 150
-665 209 -94 45 -189 110 -180 124 2 5 28 16 57 25 102 33 234 104 282 151 77
78 81 165 10 232 -53 49 -121 68 -249 68 -134 0 -208 -20 -265 -72 -37 -33
-40 -39 -40 -88 0 -72 32 -169 79 -242 l39 -61 -86 -22 c-92 -23 -285 -60
-312 -60 -9 0 -30 20 -47 44 -17 24 -53 57 -80 73 -41 24 -59 28 -123 28 -121
0 -203 -52 -186 -118 13 -55 154 -87 307 -70 52 5 97 7 101 4 4 -4 13 -41 19
-82 21 -142 -21 -241 -126 -300 -91 -51 -241 -57 -327 -13 -36 19 -40 27 -28
59 25 65 -52 185 -118 185 -18 0 -32 -6 -36 -16 -9 -23 29 -93 81 -153 l44
-51 -33 -20 c-18 -11 -37 -20 -43 -21 -5 -1 -57 -5 -115 -9 l-105 -8 110 2
c92 1 117 5 152 23 l42 22 48 -27 c44 -25 57 -27 153 -27 89 0 113 4 157 24
62 28 135 102 154 157 16 45 17 172 1 226 l-10 37 72 11 c39 7 123 23 186 36
191 41 174 41 223 -2 103 -90 251 -157 547 -245 323 -96 456 -119 686 -119
260 0 429 45 571 151 29 21 55 39 59 39 4 0 45 -15 93 -34 47 -18 95 -36 105
-40 18 -6 15 -10 -18 -30 -40 -24 -127 -120 -152 -167 -8 -16 -26 -45 -39 -65
-14 -21 -22 -41 -18 -45 10 -8 120 -43 185 -58 26 -6 79 -11 117 -11 68 0 71
-1 77 -26 7 -28 95 -148 129 -176 18 -15 22 -15 37 -1 26 24 98 168 98 198 0
24 3 26 38 24 50 -3 112 20 112 43 0 62 -85 163 -171 202 l-34 16 30 -4 c59
-9 411 -57 454 -62 41 -5 43 -7 36 -32 -3 -15 -9 -53 -12 -85 l-5 -58 48 5
c83 9 154 25 177 41 31 22 43 19 56 -13 10 -24 29 -39 93 -70 16 -8 68 104 68
146 l0 42 38 0 c30 0 45 -7 68 -31 40 -44 159 -120 236 -153 l65 -28 -24 -64
c-12 -36 -23 -74 -23 -84 0 -30 62 -52 138 -48 73 3 73 3 101 -90 22 -72 68
-134 140 -187 50 -36 50 -36 83 -19 61 31 96 64 109 101 7 21 23 58 36 82 12
24 23 50 23 57 0 29 45 46 108 38 37 -4 81 -2 114 6 116 26 217 59 276 89 34
17 66 31 72 31 19 0 101 41 98 49 -11 27 -109 149 -197 246 -78 86 -117 120
-156 139 -29 13 -61 36 -73 50 -18 23 -19 29 -6 63 7 21 13 45 14 53 0 9 27
42 61 75 33 33 84 89 112 124 l52 65 13 -45 c7 -24 17 -82 23 -129 5 -47 14
-89 19 -94 6 -6 33 -2 72 11 35 12 77 24 93 28 17 3 68 23 115 44 47 21 105
46 129 57 25 10 67 40 95 67 51 49 90 67 111 51 53 -39 82 -51 193 -81 70 -19
143 -36 162 -39 71 -10 110 -26 110 -46 0 -63 91 -172 215 -258 261 -180 845
-365 1245 -394 69 -5 67 -4 -24 9 -618 89 -1193 321 -1357 547 -28 40 -46 84
-37 93 2 2 31 -3 63 -12 38 -10 101 -17 170 -17 95 -1 116 2 157 22 80 40 81
105 2 170 -81 67 -209 82 -302 36 -49 -24 -75 -48 -114 -104 -16 -24 -18 -24
-31 -7 -8 9 -15 38 -15 63 -1 24 -4 48 -6 53 -3 4 -16 51 -30 104 -17 69 -33
107 -56 136 -18 22 -29 44 -25 50 16 27 74 46 160 51 151 10 263 80 328 205
28 54 31 69 32 150 0 50 -3 106 -7 125 -8 34 -7 36 47 70 54 34 55 35 55 83 0
26 -5 58 -11 70 -14 26 -67 90 -110 133 -35 35 -35 42 11 134 41 83 82 274 79
365 -2 28 1 78 5 113 4 43 3 62 -5 62 -25 0 -161 -45 -264 -88 -114 -48 -150
-68 -223 -127 -51 -41 -78 -44 -110 -11 -12 14 -37 28 -55 32 -17 3 -59 16
-92 27 -33 10 -86 23 -118 27 -57 6 -59 6 -70 -19 -17 -40 -11 -294 8 -331 26
-50 20 -69 -31 -91 -29 -13 -53 -33 -66 -55 -11 -19 -22 -33 -24 -32 -1 2 -21
47 -42 100 -22 53 -46 106 -55 118 -15 21 -13 24 35 64 28 22 60 53 71 68 l21
28 -22 22 c-20 22 -67 50 -105 62 -15 5 -17 17 -15 88 2 72 -1 91 -25 143 -32
68 -48 198 -29 231 10 17 11 14 12 -16 1 -60 81 -200 115 -200 20 0 85 59 96
87 10 27 33 29 101 9 67 -21 208 2 230 37 18 28 8 105 -23 165 -17 34 -35 64
-40 67 -18 12 -8 46 24 82 43 49 56 72 96 165 19 43 36 78 38 78 3 0 14 -11
25 -25 19 -24 20 -24 51 -9 36 19 83 67 97 101 12 30 39 29 129 -3 80 -29 139
-28 240 2 l49 14 6 58 c8 66 -1 102 -38 156 -14 21 -26 44 -26 50 0 6 -11 28
-25 48 -32 48 -32 57 8 104 18 21 42 53 54 69 33 49 103 237 117 316 8 41 18
86 24 100 6 14 12 41 14 60 l3 34 -95 5 c-52 3 -135 2 -184 -3 -146 -13 -145
-16 -26 104 71 71 125 115 166 137 164 85 369 79 425 -12 25 -42 24 -46 -13
-46 -69 0 -178 -98 -178 -161 0 -41 9 -58 41 -74 81 -42 181 14 211 118 6 23
13 44 15 46 9 12 73 -70 73 -94 0 -3 -9 -5 -20 -5 -69 0 -130 -93 -85 -130 28
-23 119 29 131 75 3 14 11 25 18 25 21 0 56 -31 56 -50 0 -51 93 -115 210
-143 72 -18 218 -38 265 -36 16 1 -19 8 -80 15 -238 31 -375 93 -375 170 0 25
-43 64 -71 64 -12 0 -19 7 -19 19 0 23 -42 87 -81 123 -16 15 -29 36 -29 48 0
52 -67 127 -137 151 -103 37 -305 5 -424 -67 -72 -43 -183 -146 -260 -241 -66
-80 -100 -103 -152 -103 -30 0 -36 5 -53 42 -74 161 -138 281 -175 330 -24 31
-56 77 -71 101 -27 43 -28 46 -13 87 23 65 19 148 -9 203 l-23 47 22 0 c34 0
105 -28 141 -55 l32 -25 -14 -52 c-26 -99 -11 -193 34 -217 38 -20 101 -13
127 14 48 47 27 137 -56 237 -38 46 -39 48 -24 72 21 31 84 57 157 63 51 5 59
3 82 -20 25 -25 26 -30 26 -146 0 -111 2 -122 22 -141 28 -25 68 -26 100 0 26
20 58 77 58 102 0 7 -9 -5 -19 -28 -20 -44 -63 -84 -92 -84 -9 0 -26 11 -37
25 -17 22 -19 36 -14 138 l5 114 -31 34 c-28 31 -34 34 -89 33 -78 -1 -157
-28 -185 -64 l-23 -28 -64 38 c-66 41 -130 57 -183 46 -23 -4 -47 2 -94 25
l-64 32 0 78 0 79 -27 0 c-37 0 -133 -26 -146 -39 -16 -16 -44 -13 -50 4 -4 8
-23 21 -43 30 -49 20 -65 6 -72 -64 l-5 -51 -54 0 c-54 0 -55 1 -49 25 9 37
-11 147 -40 221 -25 61 -26 68 -14 129 7 36 15 67 19 69 3 2 18 2 32 -1 25 -5
27 -9 32 -81 5 -72 39 -207 57 -225 18 -19 162 46 185 84 11 17 34 9 101 -37
86 -59 142 -76 245 -72 l81 3 27 50 c29 55 31 91 12 200 -26 149 -34 127 60
188 95 61 221 197 284 307 21 36 47 76 59 90 12 14 29 40 39 58 l18 32 -26 10
c-14 5 -38 13 -53 16 -15 3 -45 13 -67 21 -88 34 -247 57 -390 57 -77 1 -146
5 -152 9 -7 5 -13 18 -13 30 0 12 -10 38 -21 57 -31 50 -175 216 -210 241
l-30 21 52 96 c28 54 70 124 93 156 38 55 45 61 94 71 67 15 182 74 182 92 0
20 -19 54 -47 84 l-24 26 42 49 c23 27 62 71 87 97 l45 49 40 -19 c31 -13 65
-18 137 -18 137 0 163 7 184 52 26 55 31 122 12 167 -9 21 -16 47 -16 58 0 10
-9 37 -20 59 l-21 40 21 29 c11 16 43 45 70 65 27 20 78 76 114 124 l64 88 59
-4 c32 -3 62 -5 66 -6 4 -2 -13 -17 -38 -35 -73 -52 -104 -146 -90 -277 l7
-65 35 0 c42 0 110 18 138 37 11 7 23 13 27 13 5 0 37 -26 72 -59 66 -61 130
-92 219 -105 45 -7 49 -5 75 25 44 51 46 59 57 173 l10 110 50 19 c141 53 263
134 404 265 l84 79 -94 50 c-52 27 -105 54 -119 58 -14 4 -65 23 -114 42 -58
22 -114 36 -160 40 -93 7 -106 15 -106 59 0 44 -97 228 -145 274 l-33 32 -48
-37 c-27 -21 -51 -41 -54 -46 -4 -5 -11 42 -17 104 -6 61 -30 191 -52 287 -22
96 -44 198 -49 225 -6 28 -10 39 -11 25 0 -14 18 -113 40 -220 31 -149 42
-226 46 -327 l6 -132 -47 -52 c-25 -28 -51 -68 -57 -89 -15 -48 -28 -54 -86
-34 -26 9 -57 13 -72 9 -14 -3 -46 -9 -71 -13 -42 -7 -45 -9 -48 -41 l-3 -34
-92 6 c-89 6 -121 2 -257 -33 -62 -16 -86 -7 -100 35 -19 56 -259 255 -308
255 -13 0 -76 -98 -92 -141 l-13 -37 -68 136 c-38 74 -68 137 -66 138 1 1 26
-13 56 -31 97 -62 203 -57 346 15 122 61 121 60 97 112 -10 24 -47 71 -81 105
-40 41 -61 71 -61 87 0 13 14 56 30 96 17 40 30 82 30 94 0 13 12 28 29 38 68
38 112 159 77 212 -21 33 -20 36 7 36 42 0 48 -12 31 -59 -19 -55 -10 -96 23
-118 25 -16 26 -16 44 6 21 25 24 68 10 118 -9 31 -8 33 26 42 35 10 75 2 87
-18 4 -6 24 -16 45 -22 34 -10 43 -8 111 26 174 87 343 210 410 296 26 33 12
23 -53 -38 -48 -45 -127 -106 -176 -137 -100 -62 -244 -136 -264 -136 -7 0
-35 14 -61 32 -46 30 -51 31 -99 21 -41 -8 -56 -8 -73 4 -12 7 -46 16 -75 19
-30 4 -76 17 -103 30 -98 47 -208 27 -309 -57 -57 -47 -127 -81 -153 -75 -12
3 -47 35 -78 70 -31 35 -74 76 -96 91 l-41 28 28 18 c15 10 38 31 50 46 l22
27 51 -18 c55 -20 142 -16 174 7 30 22 30 77 2 141 -28 62 -26 72 16 104 9 7
34 40 55 73 34 56 44 65 124 104 48 24 89 41 92 38 3 -3 21 -8 39 -12 l32 -7
-39 -20 c-47 -25 -81 -84 -91 -160 -6 -48 -5 -51 17 -57 13 -4 47 -4 75 -1
l50 6 36 -50 c26 -35 52 -58 93 -77 51 -25 58 -27 82 -14 34 18 59 61 67 114
l7 43 62 4 c34 3 68 3 75 0 7 -2 25 -32 41 -66 31 -68 95 -133 171 -171 42
-21 47 -22 75 -8 44 23 93 72 100 102 6 24 34 93 54 131 6 11 33 16 102 20 59
4 132 16 196 34 l102 29 78 -42 c153 -82 410 -198 419 -189 2 2 -38 21 -89 42
-96 40 -377 187 -377 197 0 9 96 59 113 59 9 0 32 9 52 21 l35 21 -67 72 c-57
60 -151 143 -247 218 -12 9 -46 26 -76 38 -82 32 -93 45 -85 101 4 28 0 83 -9
135 -9 49 -18 101 -21 117 l-4 27 72 2 72 1 -78 7 c-74 6 -89 12 -100 44 -2 6
-16 5 -35 -3 -28 -12 -42 -10 -134 17 -245 72 -328 121 -328 192 0 42 -9 59
-41 76 -23 11 -29 21 -29 47 0 39 -31 104 -60 124 -12 8 -20 25 -20 41 0 86
-62 166 -156 202 -145 54 -322 9 -527 -134 l-59 -40 -31 18 c-63 37 -83 44
-153 50 l-72 7 -11 -32 c-23 -65 -6 -163 36 -210 13 -15 9 -22 -38 -65 -45
-42 -130 -131 -432 -452 l-60 -63 -56 29 c-31 16 -68 32 -82 36 -14 3 -38 15
-52 26 -23 19 -25 25 -20 68 8 71 -45 285 -81 329 -7 9 -116 -41 -198 -90 -66
-40 -103 -68 -117 -92 -11 -19 -26 -35 -34 -35 -7 0 -33 13 -58 29 -34 22 -61
30 -116 35 l-72 6 -7 -36 c-4 -19 -4 -68 -2 -107 4 -58 13 -86 43 -142 20 -38
53 -87 73 -108 l37 -38 -30 6 c-16 4 -66 31 -110 60 -94 62 -122 77 -190 99
-44 14 -52 21 -68 60 -10 24 -33 61 -51 82 l-33 38 -24 -24 c-13 -14 -31 -35
-39 -48 -15 -23 -15 -23 -64 -6 -42 14 -58 15 -113 5 -49 -9 -68 -9 -86 1 -21
11 -19 13 24 19 90 14 150 66 200 174 47 102 46 103 -3 125 -26 12 -65 20
-100 20 -66 0 -76 9 -99 94 -15 54 -80 133 -147 179 -35 25 -42 26 -73 16 -55
-19 -90 -49 -110 -94 -10 -23 -25 -48 -33 -54 -8 -7 -18 -25 -21 -41 -3 -16
-13 -31 -21 -34 -9 -3 -59 -3 -112 0 -111 7 -252 -12 -372 -50 -41 -13 -94
-30 -117 -37 -24 -7 -43 -14 -43 -17 0 -2 31 -45 69 -96 78 -104 229 -255 281
-281 76 -38 96 -74 63 -113 -27 -31 -233 -75 -346 -73 -49 0 -93 3 -98 7 -5 3
6 23 25 44 46 51 60 105 52 205 -9 124 -11 128 -61 122 -24 -4 -64 -18 -90
-32 -27 -14 -57 -25 -67 -25 -11 0 -43 20 -71 45 -34 30 -72 52 -110 63 -54
17 -61 23 -104 87 -123 184 -272 253 -371 171 -22 -19 -44 -24 -122 -29 -52
-4 -125 -10 -162 -13 l-68 -7 26 64 c24 57 26 72 20 144 -9 118 -10 119 -70
138 -67 22 -78 21 -128 -3 -23 -11 -49 -20 -58 -20 -8 0 -32 -9 -53 -20 -20
-11 -42 -20 -48 -20 -6 0 -40 29 -74 64 -69 70 -232 174 -319 202 -28 9 -64
24 -81 32 -40 22 -98 42 -103 37 -10 -10 -21 -170 -21 -308 -1 -123 3 -160 21
-221 11 -40 18 -80 15 -89 -3 -8 -22 -23 -41 -32 -21 -10 -66 -55 -113 -111
-42 -52 -79 -94 -81 -94 -2 0 -29 19 -60 43 -31 24 -92 67 -135 96 -59 39 -83
62 -94 89 -8 21 -24 49 -34 64 -11 14 -19 28 -19 31 0 3 27 -6 61 -20 46 -19
70 -23 100 -18 46 8 160 64 202 99 28 22 28 24 14 52 -17 33 -71 86 -104 103
-28 14 -29 42 -7 119 14 47 15 66 5 126 -7 38 -20 89 -30 112 -19 41 -21 43
-78 50 -52 6 -63 4 -106 -20 -26 -14 -53 -26 -60 -26 -6 0 -23 -9 -37 -20 -38
-30 -60 -24 -125 32 -70 60 -229 138 -343 169 -42 11 -81 24 -87 28 -5 5 -27
12 -48 15 l-39 7 6 -88z m7217 -497 c69 -29 119 -86 119 -136 0 -17 -4 -19
-25 -14 -14 3 -56 0 -93 -7 -37 -8 -71 -14 -76 -14 -5 0 -19 36 -31 80 -12 44
-26 89 -30 99 -8 18 -5 19 47 13 30 -4 70 -13 89 -21z m109 -197 c0 -44 -91
-149 -128 -149 -9 0 -27 8 -40 18 -21 16 -22 22 -15 67 8 47 11 50 48 61 52
16 135 18 135 3z m-7383 -56 c-13 -27 -27 -60 -31 -75 -6 -25 -2 -29 41 -48
27 -12 91 -30 143 -41 52 -11 99 -24 104 -29 9 -9 -22 -110 -39 -122 -5 -4
-27 -8 -47 -8 -45 0 -149 -40 -227 -87 -30 -18 -58 -33 -63 -33 -42 0 136
-187 212 -223 25 -12 45 -29 45 -37 0 -19 -190 -119 -225 -120 -22 0 -28 6
-37 43 -14 51 -66 135 -90 144 -16 6 -65 -38 -75 -68 -3 -10 -12 -10 -51 0
-26 8 -71 11 -102 9 -30 -3 -55 -4 -55 -2 0 1 16 25 35 54 19 29 35 65 35 80
0 46 24 62 82 54 38 -5 65 -1 119 17 69 23 69 24 63 54 -18 87 -64 155 -144
214 -27 20 -49 39 -47 43 6 19 127 133 165 155 47 28 167 72 195 73 16 0 15
-4 -6 -47z m7469 12 c9 -13 18 -42 21 -63 l5 -39 -42 -7 c-23 -4 -55 -13 -70
-21 -16 -8 -36 -12 -45 -9 -14 6 -11 13 18 43 20 20 45 55 57 79 25 49 34 51
56 17z m-6736 -68 c0 -4 -9 -3 -20 3 -11 6 -20 15 -20 20 0 4 -3 17 -6 27 -3
11 4 7 20 -12 14 -16 26 -34 26 -38z m1977 22 c47 -23 126 -105 162 -169 l22
-40 -24 0 c-13 0 -33 -10 -45 -23 -39 -41 -50 -86 -46 -180 l3 -88 -27 5
c-115 25 -222 39 -568 72 -50 5 -52 6 -59 40 -3 20 -9 42 -12 50 -3 9 1 14 11
14 18 0 120 50 148 72 16 12 16 16 -3 53 -10 21 -37 56 -59 76 -45 42 -52 74
-17 83 12 3 85 9 162 12 l140 7 0 -74 c1 -125 63 -209 152 -209 65 0 83 19 83
88 0 101 -57 174 -153 196 -24 6 -27 9 -17 21 18 22 96 19 147 -6z m-102 -48
c56 -25 92 -71 101 -128 10 -67 -9 -98 -59 -97 -21 1 -47 10 -58 20 -63 57
-93 224 -41 224 9 0 35 -9 57 -19z m-1837 -63 c37 -23 115 -77 174 -121 94
-69 107 -81 98 -97 -9 -17 -4 -23 32 -42 l43 -22 -70 -8 c-93 -11 -266 -51
-399 -92 -105 -32 -111 -32 -149 -18 l-39 16 36 18 c45 23 64 53 87 135 10 36
25 73 32 82 17 20 47 85 47 101 0 24 23 90 32 90 5 0 39 -19 76 -42z m6794 -2
c4 -6 8 -26 8 -43 0 -25 10 -43 39 -72 42 -42 94 -65 264 -114 106 -31 107
-32 85 -49 -13 -9 -57 -35 -98 -57 -48 -25 -81 -51 -93 -70 -23 -39 -48 -39
-97 -1 -26 20 -49 30 -73 30 -63 0 -73 11 -29 30 22 10 58 21 81 25 22 4 43
11 47 16 3 5 14 9 25 9 10 0 19 4 19 8 0 14 -149 141 -221 189 l-67 45 31 43
c27 36 35 41 52 32 11 -5 23 -15 27 -21z m-7932 15 c0 -17 -26 -30 -51 -25
-50 11 -54 17 -19 24 52 11 70 11 70 1z m6924 -26 c44 -39 40 -42 -27 -19 -50
17 -54 23 -35 42 16 16 18 16 62 -23z m916 28 c0 -11 -33 -43 -45 -43 -6 0
-20 6 -31 14 -18 14 -18 15 6 25 29 11 70 14 70 4z m-955 -87 l70 -23 -40 -7
c-63 -12 -98 -27 -132 -59 -37 -35 -83 -131 -86 -183 -2 -34 1 -38 33 -50 19
-7 72 -13 118 -13 l82 -1 43 -68 c48 -74 87 -108 183 -158 62 -32 65 -33 100
-18 61 26 94 55 104 96 6 20 15 40 20 43 5 3 14 24 20 45 12 44 4 42 140 41
44 -1 123 9 190 23 63 13 116 23 116 22 1 0 -2 -31 -7 -68 -9 -72 -2 -105 42
-205 24 -56 24 -57 -7 -67 -18 -5 -23 2 -43 71 -12 43 -30 89 -40 102 -19 24
-19 24 -55 7 -51 -24 -142 -93 -161 -122 -18 -28 -36 -30 -68 -9 -14 9 -42 14
-72 12 l-50 -2 -3 -49 c-3 -52 9 -93 42 -138 11 -15 18 -30 15 -32 -14 -14
-159 -73 -159 -65 0 5 9 28 20 50 19 35 19 40 4 46 -31 12 -243 -7 -306 -28
l-63 -20 -25 29 c-30 35 -116 97 -153 111 -25 10 -28 8 -46 -27 -21 -41 -49
-141 -53 -187 -3 -25 -8 -31 -33 -33 -16 -2 -42 -15 -58 -28 -16 -13 -33 -24
-38 -24 -19 0 -7 -32 26 -69 32 -36 107 -75 159 -83 20 -3 -130 -67 -221 -94
-43 -13 -48 -12 -80 7 -25 16 -32 26 -27 38 14 30 16 193 4 252 l-13 59 -41 0
c-27 0 -65 -12 -111 -35 -38 -19 -75 -35 -82 -35 -6 0 -37 21 -70 48 l-58 47
72 6 c85 8 239 57 343 110 41 21 92 46 113 56 21 10 41 21 43 25 6 9 -119 128
-177 171 l-39 29 123 136 c99 111 317 343 321 342 1 0 33 -11 71 -24z m-2132
-263 c26 -14 29 -18 13 -21 -10 -2 -28 5 -39 17 -26 25 -17 27 26 4z m-3254
-8 c-19 -18 -597 -222 -604 -212 -2 1 -10 17 -19 35 -17 32 -17 32 11 43 73
28 307 91 402 109 127 23 219 35 210 25z m-2319 -24 c30 -6 78 -16 105 -21 28
-6 82 -7 121 -4 85 8 114 -4 114 -44 0 -15 12 -45 26 -65 14 -21 24 -40 22
-41 -42 -36 -144 -35 -223 3 -83 39 -289 200 -240 187 11 -3 45 -10 75 -15z
m-290 -6 c56 -29 110 -164 80 -200 -29 -35 -88 -8 -120 56 -22 43 -43 136 -34
150 8 14 41 11 74 -6z m3270 -10 c10 -12 6 -24 -24 -68 -20 -29 -36 -58 -36
-65 0 -9 -7 -11 -22 -6 -33 10 -33 10 -4 49 15 19 34 51 42 70 16 38 25 43 44
20z m715 -10 c94 -14 186 -29 205 -34 l35 -8 -36 -15 c-35 -15 -44 -14 -223
27 -237 55 -227 52 -186 54 19 0 112 -10 205 -24z m-2030 -35 c3 -5 2 -10 -4
-10 -5 0 -13 5 -16 10 -3 6 -2 10 4 10 5 0 13 -4 16 -10z m3971 -19 c7 -13 17
-28 23 -34 15 -15 14 -42 -3 -56 -11 -9 -16 -5 -26 21 -22 61 -29 99 -17 95 7
-2 17 -14 23 -26z m384 -5 c0 -2 -7 -6 -15 -10 -8 -3 -15 -1 -15 4 0 6 7 10
15 10 8 0 15 -2 15 -4z m129 -55 c36 -22 86 -56 110 -77 40 -35 42 -39 25 -51
-15 -11 -19 -9 -32 18 -9 17 -29 41 -46 54 -35 27 -138 65 -176 65 l-25 1 25
14 c37 21 47 19 119 -24z m-3485 -18 c-22 -16 -28 -11 -19 17 6 17 9 19 22 9
13 -11 13 -14 -3 -26z m211 -15 c23 -10 26 -16 20 -42 -3 -17 -11 -58 -16 -91
-5 -33 -12 -68 -15 -77 -4 -14 3 -17 43 -20 l48 -4 -50 -23 c-62 -30 -145 -33
-193 -8 -53 29 -84 86 -90 167 l-5 70 38 16 c37 15 38 15 59 -10 l21 -26 50
29 c58 35 56 35 90 19z m-2195 -133 c24 -15 6 -25 -46 -25 l-55 0 38 44 38 44
8 -28 c4 -16 12 -32 17 -35z m640 35 c0 -5 -8 -10 -17 -10 -15 0 -16 2 -3 10
19 12 20 12 20 0z m4871 -102 c-11 -24 -24 -54 -30 -68 -11 -24 -11 -24 -6 6
3 17 1 43 -5 59 -12 32 -2 45 37 45 l23 0 -19 -42z m2589 -33 l24 -25 -50 15
c-27 8 -51 15 -54 16 -7 1 33 17 46 18 6 1 21 -10 34 -24z m-460 -161 c0 -2
-9 -4 -21 -4 -11 0 -18 4 -14 10 5 8 35 3 35 -6z m-755 -397 c0 -38 8 -68 27
-105 l27 -52 -47 27 c-26 15 -72 42 -102 60 -30 18 -61 36 -69 41 -10 5 12 19
70 44 46 20 86 36 89 37 3 1 5 -23 5 -52z m-6520 -139 c51 -61 58 -169 14
-232 -49 -71 -167 -118 -253 -100 l-41 9 -3 60 c-7 132 66 253 175 290 47 16
78 8 108 -27z m4805 -30 c45 -14 80 -46 80 -73 0 -35 -42 -88 -90 -115 -38
-21 -58 -25 -125 -25 -69 0 -88 4 -140 30 -60 30 -105 79 -105 116 0 23 93 69
162 79 61 10 167 4 218 -12z m2430 -93 c8 -5 5 -12 -8 -20 -16 -12 -28 -11
-77 4 -35 11 -53 21 -44 24 17 8 114 1 129 -8z m79 -64 c33 -47 26 -96 -22
-149 -24 -26 -37 -15 -37 30 0 15 -5 48 -12 73 -11 41 -10 46 7 60 29 21 41
18 64 -14z m145 -33 c9 -34 7 -76 -3 -83 -17 -10 -33 35 -26 71 7 39 20 44 29
12z m-7260 -219 c14 -7 27 -18 31 -27 8 -21 -63 -85 -112 -100 -40 -12 -143
-17 -143 -7 0 32 75 125 110 138 27 10 88 7 114 -4z m7862 -1119 l39 -19 -53
-1 c-50 0 -52 1 -42 20 13 24 8 24 56 0z m-1778 -189 c14 -7 16 -21 14 -80 -2
-39 -7 -71 -11 -71 -4 0 -13 17 -20 38 -7 20 -24 54 -37 74 -13 21 -24 40 -24
43 0 9 60 6 78 -4z m-63 -71 c37 -74 58 -157 52 -213 -13 -138 -177 -146 -238
-12 -22 48 -24 123 -5 168 16 37 67 88 111 110 37 19 47 11 80 -53z m824 -45
c-50 -26 -69 -28 -69 -7 0 26 4 28 51 24 41 -4 42 -5 18 -17z m1 -104 c-39
-56 -56 -71 -84 -71 -10 0 -11 10 -6 38 8 48 17 62 38 62 9 1 28 7 42 15 47
27 50 15 10 -44z m260 -277 c0 -8 -131 -148 -143 -153 -5 -2 -6 7 -2 20 3 13
34 50 68 81 58 54 77 66 77 52z m-387 -386 c18 -12 33 -23 35 -24 5 -3 -22
-44 -28 -44 -3 0 -16 20 -28 45 -12 25 -19 45 -16 45 3 0 20 -10 37 -22z m-48
-158 c-18 -36 -27 -39 -21 -7 3 12 8 40 12 62 l7 40 9 -32 c6 -24 4 -41 -7
-63z m-1278 39 c-14 -8 -22 -8 -30 0 -8 8 -3 11 19 11 25 -1 27 -2 11 -11z
m23 -34 c-7 -9 -15 -13 -17 -11 -7 7 7 26 19 26 6 0 6 -6 -2 -15z m-694 -132
c98 -48 194 -147 194 -201 0 -29 -53 -47 -136 -47 -61 0 -77 4 -119 30 -69 42
-107 100 -113 169 -7 83 -2 90 62 83 30 -3 80 -18 112 -34z m1654 -64 c7 -16
18 -29 24 -29 15 0 75 36 105 64 l24 21 -8 -49 c-9 -67 -14 -75 -44 -82 -14
-3 -56 -20 -94 -37 -37 -16 -70 -28 -73 -24 -3 3 0 49 6 102 12 91 13 95 30
80 10 -9 24 -30 30 -46z m-1975 -150 c20 -18 43 -45 51 -60 29 -57 10 -169
-30 -169 -47 0 -106 94 -106 170 0 97 23 113 85 59z m1245 -439 c0 -5 -9 -10
-20 -10 -11 0 -20 5 -20 10 0 6 9 10 20 10 11 0 20 -4 20 -10z m-45 -50 c3 -5
2 -10 -4 -10 -5 0 -13 5 -16 10 -3 6 -2 10 4 10 5 0 13 -4 16 -10z m344 -236
c-13 -14 -36 -35 -51 -46 l-28 -19 -12 26 c-13 29 -1 44 37 45 11 0 31 6 45
13 35 19 38 12 9 -19z m-161 -146 c28 -84 50 -153 48 -155 -1 -1 -48 17 -103
42 -56 24 -132 51 -170 60 -56 12 -135 39 -152 52 -7 5 31 43 43 43 6 0 29
-15 51 -32 30 -25 56 -36 109 -45 38 -6 73 -10 77 -7 13 7 31 114 27 155 -8
81 21 35 70 -113z m210 76 c-10 -57 -9 -64 15 -118 17 -36 49 -80 87 -117 55
-53 58 -59 41 -69 -11 -5 -25 -10 -31 -10 -6 0 -27 -12 -46 -26 -18 -14 -40
-24 -48 -21 -14 5 -112 243 -122 297 -5 21 0 30 20 43 14 10 40 33 58 52 17
19 33 34 34 32 2 -2 -2 -30 -8 -63z m255 -232 c-3 -12 -9 -22 -14 -22 -5 0 -3
11 3 25 13 30 20 28 11 -3z m233 -461 c-30 -16 -43 -18 -62 -9 -36 17 -19 28
44 28 l56 0 -38 -19z m846 -192 c46 -65 57 -109 33 -132 -24 -24 -71 -22 -89
5 -25 35 -18 194 7 185 6 -2 28 -28 49 -58z m-774 -81 c44 -47 80 -35 139 47
30 42 37 27 13 -26 -68 -150 36 -277 183 -225 21 8 46 21 56 30 27 25 34 19
13 -11 -51 -75 -134 -249 -142 -299 -5 -30 -15 -66 -22 -82 -12 -24 -19 -27
-63 -28 -28 -1 -65 -8 -82 -17 -37 -19 -69 -22 -78 -6 -9 13 -112 59 -135 59
-24 0 -40 42 -40 107 0 45 -7 68 -34 117 -19 34 -51 78 -70 100 -36 38 -36 39
-36 127 l0 89 30 0 c39 0 125 34 175 68 l40 28 13 -26 c7 -14 25 -37 40 -52z
m452 57 c0 -26 -46 -108 -77 -136 -69 -63 -117 -75 -153 -39 -25 25 -25 59 1
119 l20 48 72 10 c113 16 137 15 137 -2z m-860 -50 c0 -8 -2 -15 -4 -15 -2 0
-6 7 -10 15 -3 8 -1 15 4 15 6 0 10 -7 10 -15z m-15 -92 c15 -32 21 -153 7
-153 -4 0 -36 -34 -72 -75 -36 -41 -70 -75 -77 -75 -6 0 4 26 23 57 18 31 36
72 40 92 3 20 13 60 21 90 10 34 13 71 9 100 l-6 46 20 -25 c11 -14 26 -39 35
-57z m2187 -291 c-6 -86 -77 -155 -138 -135 -61 20 -25 105 65 153 53 29 77
23 73 -18z m128 -133 c0 -22 -22 -49 -51 -64 -35 -18 -49 -13 -42 15 10 39 93
83 93 49z m-3408 -146 c50 -29 65 -62 49 -112 -25 -84 -80 -102 -169 -57 -72
37 -161 139 -148 171 11 31 215 29 268 -2z m1497 -253 c51 -62 83 -92 107
-100 43 -15 50 -39 24 -90 -18 -35 -20 -51 -14 -115 5 -61 10 -76 25 -80 30
-10 131 6 172 27 49 25 151 102 176 133 10 14 22 25 26 25 23 0 -15 -59 -119
-189 l-120 -148 -23 27 c-25 30 -182 125 -225 135 -24 6 -29 3 -43 -32 l-17
-38 -43 160 c-24 88 -57 200 -74 248 -27 80 -29 88 -13 93 9 3 31 12 47 19 17
8 32 14 35 14 3 1 38 -39 79 -89z m-255 -73 c14 -40 28 -83 32 -97 l6 -25 -26
24 c-17 16 -26 35 -26 55 -1 28 -10 58 -36 121 -7 17 -6 18 8 7 9 -7 28 -45
42 -85z m904 -229 c5 -8 6 -22 1 -33 -4 -11 -8 -43 -8 -71 l-1 -52 -62 -10
c-141 -24 -142 -25 -132 -10 77 99 132 162 153 173 32 18 36 18 49 3z m-517
-745 c-8 -15 -10 -15 -11 -2 0 17 10 32 18 25 2 -3 -1 -13 -7 -23z m-127 -779
c15 -6 23 -34 10 -34 -7 0 -34 27 -34 34 0 8 5 7 24 0z m1 -95 c5 -15 -38
-119 -48 -119 -2 0 -3 40 -3 89 l1 90 22 -21 c13 -12 25 -29 28 -39z m143
-151 c17 -46 54 -146 82 -223 29 -77 67 -171 86 -208 32 -65 33 -69 18 -92
-25 -38 -34 -30 -34 28 0 94 -48 164 -189 274 l-23 19 12 142 c7 78 14 142 15
142 1 0 16 -37 33 -82z m-143 -35 c-2 -16 -7 -54 -10 -87 -3 -32 -12 -68 -20
-80 -19 -26 -39 -94 -36 -119 4 -26 -43 -39 -119 -31 -49 5 -75 2 -104 -10
-21 -9 -41 -16 -43 -16 -3 0 52 59 120 131 69 72 142 155 164 184 43 61 54 67
48 28z m348 -100 c41 -21 248 -25 287 -5 20 11 19 9 -5 -10 -67 -51 -149 -136
-183 -191 l-36 -58 -14 28 c-16 30 -92 233 -92 246 0 10 7 9 43 -10z m354
-218 c22 -40 81 -108 123 -141 l43 -34 29 27 c15 15 37 47 49 72 11 25 24 53
28 61 6 11 29 16 89 18 l81 3 8 -28 c4 -15 8 -55 7 -88 -2 -140 -104 -252
-248 -271 -46 -7 -57 1 -34 24 18 18 -15 48 -108 94 -71 35 -93 41 -169 46
l-87 5 -28 39 c-31 43 -31 48 9 125 25 49 95 128 146 165 l40 30 6 -64 c3 -35
10 -72 16 -83z m-1084 -286 c18 -12 48 -38 68 -58 20 -20 48 -44 62 -54 33
-22 34 -44 7 -122 -11 -32 -20 -76 -20 -97 0 -46 -21 -90 -86 -178 -54 -74
-136 -170 -145 -170 -4 0 -9 28 -12 63 -3 34 -11 79 -17 100 -10 36 -13 38
-41 32 l-29 -7 0 110 c0 199 29 329 100 446 l33 54 24 -49 c14 -27 39 -59 56
-70z m-1519 -192 c37 -46 30 -72 -16 -62 -27 6 -104 39 -116 50 -9 8 22 47 41
54 31 12 57 0 91 -42z m-2911 -26 c54 -26 87 -70 87 -116 0 -71 -95 -151 -255
-216 -146 -59 -148 -59 -189 -2 -46 63 -86 171 -86 233 0 47 2 51 39 76 62 41
123 54 246 51 92 -2 118 -6 158 -26z m1494 -172 c113 -42 162 -203 99 -326
-14 -29 -31 -53 -37 -53 -21 0 -123 73 -171 122 -94 97 -131 194 -89 232 37
34 141 47 198 25z m4538 -181 c51 -26 95 -67 95 -90 0 -9 -12 -26 -27 -35 -57
-37 -373 -13 -373 28 0 20 40 67 74 88 70 44 154 47 231 9z m-6940 -27 c27
-12 56 -36 75 -63 l32 -43 -59 -8 c-82 -12 -231 -3 -276 16 -49 21 -56 42 -24
74 52 53 164 63 252 24z m-415 -327 c17 -15 37 -39 45 -55 16 -31 20 -109 6
-109 -25 0 -121 138 -121 175 0 23 35 18 70 -11z m5057 -160 c-3 -3 -12 -4
-19 -1 -8 3 -5 6 6 6 11 1 17 -2 13 -5z m-50 -45 c28 -11 28 -11 -26 -30 -67
-23 -111 -56 -136 -103 -15 -28 -24 -35 -40 -30 -48 12 -204 97 -245 133 l-44
38 144 7 c80 4 172 11 205 15 42 5 68 3 87 -6 16 -7 40 -18 55 -24z"/>
<path d="M120 11396 c0 -2 8 -10 18 -17 15 -13 16 -12 3 4 -13 16 -21 21 -21
13z"/>
<path d="M2808 713 c7 -3 16 -2 19 1 4 3 -2 6 -13 5 -11 0 -14 -3 -6 -6z"/>
<path d="M2848 703 c7 -3 16 -2 19 1 4 3 -2 6 -13 5 -11 0 -14 -3 -6 -6z"/>
<path d="M2900 690 c25 -8 87 -13 79 -6 -2 2 -26 6 -54 9 -34 4 -42 3 -25 -3z"/>
</g>
</svg>
